<?xml version="1.0" encoding="utf-8"?><svg version="1.1" xmlns="http://www.w3.org/2000/svg" xmlns:xlink="http://www.w3.org/1999/xlink" x="0px" y="0px" viewBox="0 0 452.5 234.2" style="enable-background:new 0 0 452.5 234.2;" xml:space="preserve"><style>.logo{fill:#504f8b;}</style><g><path class="logo" d="M157.9,42.3c0.8,0.4,2.7,1.3,3.5,1.7c1.5,1.1,2.2,1.5,3.5,2.8c1.2,1.4,1.7,2.5,2.9,3.9c1,0.4,1.4,0.3,1.9-0.5c15.2-19.3,38.2-31.6,63.8-31.6c25.8,0,48.8,12.4,64.1,31.9c0.6,0.9,1.1,1,2,0.6c1.2-1.4,1.7-2.5,2.9-3.9c1.3-1.4,2-1.7,3.5-2.8c0.8-0.4,2.7-1.3,3.5-1.7c0.4-0.3,1.4-1.2,1.3-2.4C293,15.9,264.9,0,233.6,0c-31.1,0-59,15.6-76.9,39.9C156.5,41.2,157.5,42.1,157.9,42.3z"/><path class="logo" d="M174.1,188.4c0-6.4,4.8-11.6,10.4-11.8c-18.4-16-30-40.3-30-67.5c0-20.7,8-40,18.8-53.6c5.7-6,9.1-9.5,11.2-13.5c0.1-0.8,0.2-1.2-0.1-1.5c-0.4-0.5-0.9-0.7-2-0.2c-2.3,1.4-4,2.7-6.4,4.9c-1.3,1.3-2.6,2.6-4.8,5.5c-1.4,1.9-3.7,2.8-5,0.7c-1.3-1.5-1-1.1-2.2-2.6c-0.8-1.3-4.3-4.7-5.3-4.2c-13,17.7-20.8,40.2-20.8,64.7c0,33,14.2,62.5,36.4,81.6C174.2,190,174.1,189.2,174.1,188.4z"/><path class="logo" d="M329.6,109.2c0-24.5-7.8-47-20.8-64.7c-0.9-0.5-4.4,2.9-5.3,4.2c-1.3,1.5-1,1.1-2.2,2.6c-1.4,2.2-3.7,1.3-5-0.7c-2.2-2.9-3.5-4.2-4.8-5.5c-2.4-2.2-4.1-3.5-6.4-4.9c-1.1-0.5-1.6-0.3-2,0.2c-0.3,0.4-0.3,0.7-0.1,1.5c2.2,4,5.5,7.5,11.2,13.5c10.8,13.6,18.8,32.9,18.8,53.6c0,27.2-11.7,51.5-30,67.5c5.6,0.2,10.4,5.4,10.4,11.8c0,0.8-0.1,1.6-0.2,2.4C315.4,171.7,329.6,142.2,329.6,109.2z"/><path class="logo" d="M278.7,116.1l-13-23.6l-3.1,5.6V87.8l0,0l-13-23.6l-2.9,5.3v-9.8l0-0.1l0-0.1v0h0l-13-23.5l-13,23.6l0.1,0.1v9.2L218,64l-13,23.5H205v10.3l-3-5.4l-13,23.6l0,0.1v73.7h0v2.1h89.7v-2.1h0v-73.4L278.7,116.1z M201.1,189.6h-10v-69.9l10,18.1V189.6z M212.9,189.6h-9.7v-52.4l9.7-17.5V189.6z M216.9,189.6h-2V116l0-0.1l0-0.1v-0.1h0l-7.9-14.3h0V91.2l9.9,17.8V189.6z M229,189.6h-10v-80.3l10-18.2V189.6z M232.8,189.6h-1.6V87.5h-0.1l0,0l-8.2-14.9h0v-9.2l9.9,17.9V189.6z M236.6,87.6L236.6,87.6L236.6,87.6v0.1v101.9h-1.8V81.3h-0.1l9.8-17.8v9.7h0.1L236.6,87.6L236.6,87.6z M248.6,189.6h-9.9V91.6l9.9,17.9V189.6z M252.7,189.6h-2v-80.3l9.8-17.7v10.3h0l-7.9,14.2l0,0.1V189.6z M264.6,189.6h-9.8V120l9.8,17.8V189.6z M276.5,189.6h-9.8v-51.9l9.8-17.7V189.6z"/><polygon class="logo" points="43.5,221.9 40.5,213.9 37.4,221.9 27.6,221.9 35.5,226.8 32.5,234.8 40.5,229.8 48.4,234.8 45.4,226.8 53.3,221.9 "/><polygon class="logo" points="75.3,221.9 72.2,213.9 69.2,221.9 59.4,221.9 67.3,226.8 64.3,234.8 72.2,229.8 80.2,234.8 77.2,226.8 85.1,221.9 "/><polygon class="logo" points="108.8,221.9 105.8,213.9 102.8,221.9 92.9,221.9 100.9,226.8 97.8,234.8 105.8,229.8 113.8,234.8 110.7,226.8 118.7,221.9 "/><polygon class="logo" points="343.2,221.9 340.2,213.9 337.2,221.9 327.3,221.9 335.3,226.8 332.2,234.8 340.2,229.8 348.2,234.8 345.1,226.8 353.1,221.9 "/><polygon class="logo" points="375,221.9 372,213.9 368.9,221.9 359.1,221.9 367.1,226.8 364,234.8 372,229.8 379.9,234.8 376.9,226.8 384.9,221.9 "/><polygon class="logo" points="408.6,221.9 405.6,213.9 402.5,221.9 392.7,221.9 400.6,226.8 397.6,234.8 405.6,229.8 413.5,234.8 410.5,226.8 418.4,221.9 "/><polygon class="logo" points="442.4,221.9 439.4,213.9 436.3,221.9 426.5,221.9 434.5,226.8 431.4,234.8 439.4,229.8 447.3,234.8 444.3,226.8 452.2,221.9 "/><polygon class="logo" points="276,229.5 271.7,216.9 268,216.9 274.1,233.9 277.8,233.9 283.9,216.9 280.2,216.9 "/><polygon class="logo" points="240.3,217 236.8,217 236.8,233.9 248.8,233.9 248.8,231 240.3,231 "/><rect x="230" y="216.9" class="logo" width="3.4" height="17"/><path class="logo" d="M258.8,216.6c-1.4,0-2.6,0.2-3.7,0.7c-0.8,0.3-1.5,0.8-2.2,1.5c-0.7,0.7-1.2,1.5-1.6,2.3c-0.5,1.2-0.8,2.6-0.8,4.4c0,2.7,0.7,4.8,2.2,6.4c1.5,1.5,3.5,2.3,6,2.3c2.5,0,4.5-0.8,6-2.3c1.5-1.6,2.2-3.7,2.2-6.5c0-2.8-0.8-4.9-2.3-6.5C263.3,217.4,261.3,216.6,258.8,216.6z M262.2,229.8c-0.9,1-2,1.5-3.4,1.5c-1.4,0-2.5-0.5-3.4-1.5c-0.9-1-1.3-2.5-1.3-4.4c0-2,0.4-3.4,1.3-4.4c0.9-1,2-1.5,3.4-1.5c1.4,0,2.6,0.5,3.4,1.4c0.9,1,1.3,2.4,1.3,4.4C263.5,227.3,263.1,228.8,262.2,229.8z"/><path class="logo" d="M217.9,216.9l-6.6,17h3.6l1.4-3.9h6.8l1.5,3.9h3.7l-6.8-17H217.9z M217.3,227.2l2.3-6.3l2.3,6.3H217.3z"/><polygon class="logo" points="190.6,219.5 190.6,216.9 178.2,216.9 178.2,219.8 186.1,219.8 177.1,230.8 177.1,233.9 191,233.9 191,231 181.3,231 "/><rect x="171.9" y="216.9" class="logo" width="3.4" height="17"/><path class="logo" d="M293.1,216.6c-1.4,0-2.6,0.2-3.7,0.7c-0.8,0.3-1.5,0.8-2.2,1.5c-0.7,0.7-1.2,1.5-1.6,2.3c-0.5,1.2-0.8,2.6-0.8,4.4c0,2.7,0.7,4.8,2.2,6.4c1.5,1.5,3.5,2.3,6,2.3c2.5,0,4.5-0.8,6-2.3c1.5-1.6,2.2-3.7,2.2-6.5c0-2.8-0.8-4.9-2.3-6.5C297.7,217.4,295.7,216.6,293.1,216.6z M296.6,229.8c-0.9,1-2,1.5-3.4,1.5c-1.4,0-2.5-0.5-3.4-1.5c-0.9-1-1.3-2.5-1.3-4.4c0-2,0.4-3.4,1.3-4.4c0.9-1,2-1.5,3.4-1.5c1.4,0,2.6,0.5,3.4,1.4c0.9,1,1.3,2.4,1.3,4.4C297.9,227.3,297.4,228.8,296.6,229.8z"/><polygon class="logo" points="201.3,228.5 198.2,216.9 193.1,216.9 193.1,233.9 196.3,233.9 196.3,220.5 199.7,233.9 203,233.9 206.3,220.5 206.3,233.9 209.5,233.9 209.5,216.9 204.4,216.9 "/><path class="logo" d="M14.2,195h6.6v3.6c-0.9,0.7-1.9,1.2-3.1,1.7c-1.2,0.5-2.4,0.7-3.6,0.7c-2.4,0-4.4-0.8-5.9-2.5c-1.5-1.7-2.2-4.2-2.2-7.6c0-3.1,0.7-5.5,2.2-7.1c1.5-1.6,3.5-2.4,6-2.4c1.7,0,3,0.4,4.1,1.2c1.1,0.8,1.9,1.9,2.3,3.3l5.7-1.1c-0.6-2.6-1.8-4.6-3.8-6.1c-2-1.5-4.7-2.2-8.2-2.2c-2.7,0-5,0.5-6.8,1.4c-2.4,1.2-4.2,3-5.4,5.3c-1.2,2.3-1.9,4.9-1.9,7.9c0,2.7,0.6,5.2,1.7,7.6c1.1,2.3,2.8,4.1,5,5.3c2.2,1.2,4.8,1.9,7.8,1.9c2.3,0,4.6-0.4,6.9-1.3c2.3-0.9,4-1.9,5.2-3.1v-11.3H14.2V195z"/><polygon class="logo" points="107.1,196.4 101.9,177 93.4,177 93.4,205.4 98.7,205.4 98.7,183.1 104.3,205.4 109.8,205.4 115.5,183.1 115.5,205.4 120.8,205.4 120.8,177 112.2,177 "/><path class="logo" d="M40,177l-11.1,28.4H35l2.3-6.4h11.3l2.5,6.4h6.2L46,177H40z M39.1,194.2l3.8-10.5l3.9,10.5H39.1z"/><path class="logo" d="M134.6,177l-11.1,28.4h6.1l2.3-6.4h11.3l2.5,6.4h6.2L140.7,177H134.6z M133.8,194.2l3.8-10.5l3.9,10.5H133.8z"/><polygon class="logo" points="74.1,196.4 68.9,177 60.4,177 60.4,205.4 65.7,205.4 65.7,183.1 71.3,205.4 76.8,205.4 82.4,183.1 82.4,205.4 87.8,205.4 87.8,177 79.2,177 "/><polygon class="logo" points="404.5,200.4 390.2,200.4 390.2,177.1 384.5,177.1 384.5,205.2 404.5,205.2 "/><path class="logo" d="M349.4,180c-1.2-1.3-2.6-2.1-4.3-2.6c-1.2-0.4-3-0.5-5.4-0.5h-10.5v28.4h10.8c2.1,0,3.8-0.2,5.1-0.6c1.7-0.5,3-1.3,4-2.3c1.3-1.3,2.3-2.9,3-5c0.6-1.7,0.9-3.7,0.9-6c0-2.7-0.3-4.9-0.9-6.7C351.5,182.8,350.6,181.2,349.4,180z M346.6,196.2c-0.4,1.3-0.9,2.2-1.5,2.7s-1.4,0.9-2.3,1.2c-0.7,0.2-1.9,0.3-3.5,0.3H335v-18.8h2.6c2.3,0,3.9,0.1,4.7,0.3c1.1,0.2,2,0.7,2.7,1.3c0.7,0.7,1.2,1.6,1.6,2.7c0.4,1.2,0.6,2.9,0.6,5S346.9,195,346.6,196.2z"/><polygon class="logo" points="412,205.2 417.7,205.2 417.7,181.6 426.1,181.6 426.1,176.8 403.6,176.8 403.6,181.6 412,181.6 "/><polygon class="logo" points="379.5,200.4 363.6,200.4 363.6,192.7 377.9,192.7 377.9,187.9 363.6,187.9 363.6,181.6 379,181.6 379,176.8 357.9,176.8 357.9,205.2 379.5,205.2 "/><path class="logo" d="M432.4,198.8h11.3l2.5,6.4h6.2l-11.4-28.4h-6.1L424,205.2h6.1L432.4,198.8z M438,183.5l3.9,10.5h-7.7L438,183.5z"/></g></svg>